{
	"asset":{
		"generator":"Khronos glTF Blender I/O v4.2.80",
		"version":"2.0"
	},
	"scene":0,
	"scenes":[
		{
			"name":"Scene",
			"nodes":[
				3
			]
		}
	],
	"nodes":[
		{
			"name":"Head",
			"translation":[
				0,
				1.100000023841858,
				0
			]
		},
		{
			"children":[
				0
			],
			"name":"Body"
		},
		{
			"mesh":0,
			"name":"Player",
			"skin":0
		},
		{
			"children":[
				2,
				1
			],
			"name":"Armature"
		}
	],
	"animations":[
		{
			"channels":[
				{
					"sampler":0,
					"target":{
						"node":1,
						"path":"translation"
					}
				},
				{
					"sampler":1,
					"target":{
						"node":1,
						"path":"rotation"
					}
				},
				{
					"sampler":2,
					"target":{
						"node":1,
						"path":"scale"
					}
				},
				{
					"sampler":3,
					"target":{
						"node":0,
						"path":"translation"
					}
				},
				{
					"sampler":4,
					"target":{
						"node":0,
						"path":"rotation"
					}
				},
				{
					"sampler":5,
					"target":{
						"node":0,
						"path":"scale"
					}
				}
			],
			"name":"Armature\u30a2\u30af\u30b7\u30e7\u30f3",
			"samplers":[
				{
					"input":7,
					"interpolation":"STEP",
					"output":8
				},
				{
					"input":7,
					"interpolation":"STEP",
					"output":9
				},
				{
					"input":7,
					"interpolation":"STEP",
					"output":10
				},
				{
					"input":7,
					"interpolation":"STEP",
					"output":11
				},
				{
					"input":7,
					"interpolation":"STEP",
					"output":12
				},
				{
					"input":7,
					"interpolation":"STEP",
					"output":13
				}
			]
		}
	],
	"meshes":[
		{
			"name":"\u5186\u9310",
			"primitives":[
				{
					"attributes":{
						"POSITION":0,
						"NORMAL":1,
						"TEXCOORD_0":2,
						"JOINTS_0":3,
						"WEIGHTS_0":4
					},
					"indices":5
				}
			]
		}
	],
	"skins":[
		{
			"inverseBindMatrices":6,
			"joints":[
				1,
				0
			],
			"name":"Armature"
		}
	],
	"accessors":[
		{
			"bufferView":0,
			"componentType":5126,
			"count":76,
			"max":[
				0.5523405075073242,
				2.10494327545166,
				0.5523405075073242
			],
			"min":[
				-0.5523405075073242,
				0,
				-0.5523405075073242
			],
			"type":"VEC3"
		},
		{
			"bufferView":1,
			"componentType":5126,
			"count":76,
			"type":"VEC3"
		},
		{
			"bufferView":2,
			"componentType":5126,
			"count":76,
			"type":"VEC2"
		},
		{
			"bufferView":3,
			"componentType":5121,
			"count":76,
			"type":"VEC4"
		},
		{
			"bufferView":4,
			"componentType":5126,
			"count":76,
			"type":"VEC4"
		},
		{
			"bufferView":5,
			"componentType":5123,
			"count":126,
			"type":"SCALAR"
		},
		{
			"bufferView":6,
			"componentType":5126,
			"count":2,
			"type":"MAT4"
		},
		{
			"bufferView":7,
			"componentType":5126,
			"count":2,
			"max":[
				1
			],
			"min":[
				0
			],
			"type":"SCALAR"
		},
		{
			"bufferView":8,
			"componentType":5126,
			"count":2,
			"type":"VEC3"
		},
		{
			"bufferView":9,
			"componentType":5126,
			"count":2,
			"type":"VEC4"
		},
		{
			"bufferView":10,
			"componentType":5126,
			"count":2,
			"type":"VEC3"
		},
		{
			"bufferView":11,
			"componentType":5126,
			"count":2,
			"type":"VEC3"
		},
		{
			"bufferView":12,
			"componentType":5126,
			"count":2,
			"type":"VEC4"
		},
		{
			"bufferView":13,
			"componentType":5126,
			"count":2,
			"type":"VEC3"
		}
	],
	"bufferViews":[
		{
			"buffer":0,
			"byteLength":912,
			"byteOffset":0,
			"target":34962
		},
		{
			"buffer":0,
			"byteLength":912,
			"byteOffset":912,
			"target":34962
		},
		{
			"buffer":0,
			"byteLength":608,
			"byteOffset":1824,
			"target":34962
		},
		{
			"buffer":0,
			"byteLength":304,
			"byteOffset":2432,
			"target":34962
		},
		{
			"buffer":0,
			"byteLength":1216,
			"byteOffset":2736,
			"target":34962
		},
		{
			"buffer":0,
			"byteLength":252,
			"byteOffset":3952,
			"target":34963
		},
		{
			"buffer":0,
			"byteLength":128,
			"byteOffset":4204
		},
		{
			"buffer":0,
			"byteLength":8,
			"byteOffset":4332
		},
		{
			"buffer":0,
			"byteLength":24,
			"byteOffset":4340
		},
		{
			"buffer":0,
			"byteLength":32,
			"byteOffset":4364
		},
		{
			"buffer":0,
			"byteLength":24,
			"byteOffset":4396
		},
		{
			"buffer":0,
			"byteLength":24,
			"byteOffset":4420
		},
		{
			"buffer":0,
			"byteLength":32,
			"byteOffset":4444
		},
		{
			"buffer":0,
			"byteLength":24,
			"byteOffset":4476
		}
	],
	"buffers":[
		{
			"byteLength":4500,
			"uri":"Player.bin"
		}
	]
}
