{
	"asset":{
		"generator":"Khronos glTF Blender I/O v4.2.80",
		"version":"2.0"
	},
	"scene":0,
	"scenes":[
		{
			"name":"Scene",
			"nodes":[
				3,
				6
			]
		}
	],
	"nodes":[
		{
			"name":"Head",
			"translation":[
				0,
				1.100000023841858,
				0
			]
		},
		{
			"children":[
				0
			],
			"name":"Body"
		},
		{
			"mesh":0,
			"name":"Player",
			"skin":0
		},
		{
			"children":[
				2,
				1
			],
			"name":"Armature"
		},
		{
			"name":"WeponBone"
		},
		{
			"mesh":1,
			"name":"Wepon",
			"skin":1
		},
		{
			"children":[
				5,
				4
			],
			"name":"WeponArmature"
		}
	],
	"animations":[
		{
			"channels":[
				{
					"sampler":0,
					"target":{
						"node":1,
						"path":"translation"
					}
				},
				{
					"sampler":1,
					"target":{
						"node":1,
						"path":"rotation"
					}
				},
				{
					"sampler":2,
					"target":{
						"node":1,
						"path":"scale"
					}
				},
				{
					"sampler":3,
					"target":{
						"node":0,
						"path":"translation"
					}
				},
				{
					"sampler":4,
					"target":{
						"node":0,
						"path":"rotation"
					}
				},
				{
					"sampler":5,
					"target":{
						"node":0,
						"path":"scale"
					}
				},
				{
					"sampler":6,
					"target":{
						"node":4,
						"path":"translation"
					}
				},
				{
					"sampler":7,
					"target":{
						"node":4,
						"path":"rotation"
					}
				},
				{
					"sampler":8,
					"target":{
						"node":4,
						"path":"scale"
					}
				}
			],
			"name":"AttackCharged",
			"samplers":[
				{
					"input":14,
					"interpolation":"STEP",
					"output":15
				},
				{
					"input":16,
					"interpolation":"LINEAR",
					"output":17
				},
				{
					"input":16,
					"interpolation":"LINEAR",
					"output":18
				},
				{
					"input":14,
					"interpolation":"LINEAR",
					"output":19
				},
				{
					"input":14,
					"interpolation":"LINEAR",
					"output":20
				},
				{
					"input":14,
					"interpolation":"STEP",
					"output":21
				},
				{
					"input":16,
					"interpolation":"LINEAR",
					"output":22
				},
				{
					"input":16,
					"interpolation":"LINEAR",
					"output":23
				},
				{
					"input":16,
					"interpolation":"LINEAR",
					"output":24
				}
			]
		},
		{
			"channels":[
				{
					"sampler":0,
					"target":{
						"node":1,
						"path":"translation"
					}
				},
				{
					"sampler":1,
					"target":{
						"node":1,
						"path":"rotation"
					}
				},
				{
					"sampler":2,
					"target":{
						"node":1,
						"path":"scale"
					}
				},
				{
					"sampler":3,
					"target":{
						"node":0,
						"path":"translation"
					}
				},
				{
					"sampler":4,
					"target":{
						"node":0,
						"path":"rotation"
					}
				},
				{
					"sampler":5,
					"target":{
						"node":0,
						"path":"scale"
					}
				},
				{
					"sampler":6,
					"target":{
						"node":4,
						"path":"translation"
					}
				},
				{
					"sampler":7,
					"target":{
						"node":4,
						"path":"rotation"
					}
				},
				{
					"sampler":8,
					"target":{
						"node":4,
						"path":"scale"
					}
				}
			],
			"name":"AttackFirst",
			"samplers":[
				{
					"input":25,
					"interpolation":"STEP",
					"output":26
				},
				{
					"input":27,
					"interpolation":"LINEAR",
					"output":28
				},
				{
					"input":25,
					"interpolation":"STEP",
					"output":29
				},
				{
					"input":25,
					"interpolation":"STEP",
					"output":30
				},
				{
					"input":27,
					"interpolation":"LINEAR",
					"output":31
				},
				{
					"input":25,
					"interpolation":"STEP",
					"output":32
				},
				{
					"input":27,
					"interpolation":"LINEAR",
					"output":33
				},
				{
					"input":27,
					"interpolation":"LINEAR",
					"output":34
				},
				{
					"input":27,
					"interpolation":"LINEAR",
					"output":35
				}
			]
		},
		{
			"channels":[
				{
					"sampler":0,
					"target":{
						"node":1,
						"path":"translation"
					}
				},
				{
					"sampler":1,
					"target":{
						"node":1,
						"path":"rotation"
					}
				},
				{
					"sampler":2,
					"target":{
						"node":1,
						"path":"scale"
					}
				},
				{
					"sampler":3,
					"target":{
						"node":0,
						"path":"translation"
					}
				},
				{
					"sampler":4,
					"target":{
						"node":0,
						"path":"rotation"
					}
				},
				{
					"sampler":5,
					"target":{
						"node":0,
						"path":"scale"
					}
				},
				{
					"sampler":6,
					"target":{
						"node":4,
						"path":"translation"
					}
				},
				{
					"sampler":7,
					"target":{
						"node":4,
						"path":"rotation"
					}
				},
				{
					"sampler":8,
					"target":{
						"node":4,
						"path":"scale"
					}
				}
			],
			"name":"AttackSecond",
			"samplers":[
				{
					"input":36,
					"interpolation":"STEP",
					"output":37
				},
				{
					"input":38,
					"interpolation":"LINEAR",
					"output":39
				},
				{
					"input":36,
					"interpolation":"STEP",
					"output":40
				},
				{
					"input":36,
					"interpolation":"LINEAR",
					"output":41
				},
				{
					"input":36,
					"interpolation":"LINEAR",
					"output":42
				},
				{
					"input":36,
					"interpolation":"STEP",
					"output":43
				},
				{
					"input":38,
					"interpolation":"LINEAR",
					"output":44
				},
				{
					"input":38,
					"interpolation":"LINEAR",
					"output":45
				},
				{
					"input":38,
					"interpolation":"LINEAR",
					"output":46
				}
			]
		},
		{
			"channels":[
				{
					"sampler":0,
					"target":{
						"node":1,
						"path":"translation"
					}
				},
				{
					"sampler":1,
					"target":{
						"node":1,
						"path":"rotation"
					}
				},
				{
					"sampler":2,
					"target":{
						"node":1,
						"path":"scale"
					}
				},
				{
					"sampler":3,
					"target":{
						"node":0,
						"path":"translation"
					}
				},
				{
					"sampler":4,
					"target":{
						"node":0,
						"path":"rotation"
					}
				},
				{
					"sampler":5,
					"target":{
						"node":0,
						"path":"scale"
					}
				},
				{
					"sampler":6,
					"target":{
						"node":4,
						"path":"translation"
					}
				},
				{
					"sampler":7,
					"target":{
						"node":4,
						"path":"rotation"
					}
				},
				{
					"sampler":8,
					"target":{
						"node":4,
						"path":"scale"
					}
				}
			],
			"name":"Charge",
			"samplers":[
				{
					"input":47,
					"interpolation":"STEP",
					"output":48
				},
				{
					"input":49,
					"interpolation":"LINEAR",
					"output":50
				},
				{
					"input":49,
					"interpolation":"LINEAR",
					"output":51
				},
				{
					"input":47,
					"interpolation":"STEP",
					"output":52
				},
				{
					"input":47,
					"interpolation":"STEP",
					"output":53
				},
				{
					"input":47,
					"interpolation":"STEP",
					"output":54
				},
				{
					"input":49,
					"interpolation":"LINEAR",
					"output":55
				},
				{
					"input":49,
					"interpolation":"LINEAR",
					"output":56
				},
				{
					"input":49,
					"interpolation":"LINEAR",
					"output":57
				}
			]
		},
		{
			"channels":[
				{
					"sampler":0,
					"target":{
						"node":1,
						"path":"translation"
					}
				},
				{
					"sampler":1,
					"target":{
						"node":1,
						"path":"rotation"
					}
				},
				{
					"sampler":2,
					"target":{
						"node":1,
						"path":"scale"
					}
				},
				{
					"sampler":3,
					"target":{
						"node":0,
						"path":"translation"
					}
				},
				{
					"sampler":4,
					"target":{
						"node":0,
						"path":"rotation"
					}
				},
				{
					"sampler":5,
					"target":{
						"node":0,
						"path":"scale"
					}
				},
				{
					"sampler":6,
					"target":{
						"node":4,
						"path":"translation"
					}
				},
				{
					"sampler":7,
					"target":{
						"node":4,
						"path":"rotation"
					}
				},
				{
					"sampler":8,
					"target":{
						"node":4,
						"path":"scale"
					}
				}
			],
			"name":"Dash",
			"samplers":[
				{
					"input":25,
					"interpolation":"STEP",
					"output":58
				},
				{
					"input":27,
					"interpolation":"LINEAR",
					"output":59
				},
				{
					"input":25,
					"interpolation":"STEP",
					"output":60
				},
				{
					"input":25,
					"interpolation":"STEP",
					"output":61
				},
				{
					"input":27,
					"interpolation":"LINEAR",
					"output":62
				},
				{
					"input":25,
					"interpolation":"STEP",
					"output":63
				},
				{
					"input":25,
					"interpolation":"STEP",
					"output":64
				},
				{
					"input":25,
					"interpolation":"STEP",
					"output":65
				},
				{
					"input":25,
					"interpolation":"STEP",
					"output":66
				}
			]
		},
		{
			"channels":[
				{
					"sampler":0,
					"target":{
						"node":1,
						"path":"translation"
					}
				},
				{
					"sampler":1,
					"target":{
						"node":1,
						"path":"rotation"
					}
				},
				{
					"sampler":2,
					"target":{
						"node":1,
						"path":"scale"
					}
				},
				{
					"sampler":3,
					"target":{
						"node":0,
						"path":"translation"
					}
				},
				{
					"sampler":4,
					"target":{
						"node":0,
						"path":"rotation"
					}
				},
				{
					"sampler":5,
					"target":{
						"node":0,
						"path":"scale"
					}
				},
				{
					"sampler":6,
					"target":{
						"node":4,
						"path":"translation"
					}
				},
				{
					"sampler":7,
					"target":{
						"node":4,
						"path":"rotation"
					}
				},
				{
					"sampler":8,
					"target":{
						"node":4,
						"path":"scale"
					}
				}
			],
			"name":"Idle",
			"samplers":[
				{
					"input":67,
					"interpolation":"STEP",
					"output":68
				},
				{
					"input":67,
					"interpolation":"STEP",
					"output":69
				},
				{
					"input":67,
					"interpolation":"STEP",
					"output":70
				},
				{
					"input":67,
					"interpolation":"STEP",
					"output":71
				},
				{
					"input":67,
					"interpolation":"STEP",
					"output":72
				},
				{
					"input":67,
					"interpolation":"STEP",
					"output":73
				},
				{
					"input":67,
					"interpolation":"STEP",
					"output":74
				},
				{
					"input":67,
					"interpolation":"STEP",
					"output":75
				},
				{
					"input":67,
					"interpolation":"STEP",
					"output":76
				}
			]
		}
	],
	"meshes":[
		{
			"name":"\u5186\u9310",
			"primitives":[
				{
					"attributes":{
						"POSITION":0,
						"NORMAL":1,
						"TEXCOORD_0":2,
						"JOINTS_0":3,
						"WEIGHTS_0":4
					},
					"indices":5
				}
			]
		},
		{
			"name":"\u7acb\u65b9\u4f53",
			"primitives":[
				{
					"attributes":{
						"POSITION":7,
						"NORMAL":8,
						"TEXCOORD_0":9,
						"JOINTS_0":10,
						"WEIGHTS_0":11
					},
					"indices":12
				}
			]
		}
	],
	"skins":[
		{
			"inverseBindMatrices":6,
			"joints":[
				1,
				0
			],
			"name":"Armature"
		},
		{
			"inverseBindMatrices":13,
			"joints":[
				4
			],
			"name":"WeponArmature"
		}
	],
	"accessors":[
		{
			"bufferView":0,
			"componentType":5126,
			"count":72,
			"max":[
				0.5523405075073242,
				2.10494327545166,
				0.5523405075073242
			],
			"min":[
				-0.5523405075073242,
				0,
				-0.5523405075073242
			],
			"type":"VEC3"
		},
		{
			"bufferView":1,
			"componentType":5126,
			"count":72,
			"type":"VEC3"
		},
		{
			"bufferView":2,
			"componentType":5126,
			"count":72,
			"type":"VEC2"
		},
		{
			"bufferView":3,
			"componentType":5121,
			"count":72,
			"type":"VEC4"
		},
		{
			"bufferView":4,
			"componentType":5126,
			"count":72,
			"type":"VEC4"
		},
		{
			"bufferView":5,
			"componentType":5123,
			"count":114,
			"type":"SCALAR"
		},
		{
			"bufferView":6,
			"componentType":5126,
			"count":2,
			"type":"MAT4"
		},
		{
			"bufferView":7,
			"componentType":5126,
			"count":74,
			"max":[
				0.008407517336308956,
				1.5250705480575562,
				0.19583460688591003
			],
			"min":[
				-0.008407517336308956,
				-0.2008069008588791,
				-0.15055400133132935
			],
			"type":"VEC3"
		},
		{
			"bufferView":8,
			"componentType":5126,
			"count":74,
			"type":"VEC3"
		},
		{
			"bufferView":9,
			"componentType":5126,
			"count":74,
			"type":"VEC2"
		},
		{
			"bufferView":10,
			"componentType":5121,
			"count":74,
			"type":"VEC4"
		},
		{
			"bufferView":11,
			"componentType":5126,
			"count":74,
			"type":"VEC4"
		},
		{
			"bufferView":12,
			"componentType":5123,
			"count":102,
			"type":"SCALAR"
		},
		{
			"bufferView":13,
			"componentType":5126,
			"count":1,
			"type":"MAT4"
		},
		{
			"bufferView":14,
			"componentType":5126,
			"count":2,
			"max":[
				1.0833333333333333
			],
			"min":[
				0
			],
			"type":"SCALAR"
		},
		{
			"bufferView":15,
			"componentType":5126,
			"count":2,
			"type":"VEC3"
		},
		{
			"bufferView":16,
			"componentType":5126,
			"count":66,
			"max":[
				1.0833333333333333
			],
			"min":[
				0
			],
			"type":"SCALAR"
		},
		{
			"bufferView":17,
			"componentType":5126,
			"count":66,
			"type":"VEC4"
		},
		{
			"bufferView":18,
			"componentType":5126,
			"count":66,
			"type":"VEC3"
		},
		{
			"bufferView":19,
			"componentType":5126,
			"count":2,
			"type":"VEC3"
		},
		{
			"bufferView":20,
			"componentType":5126,
			"count":2,
			"type":"VEC4"
		},
		{
			"bufferView":21,
			"componentType":5126,
			"count":2,
			"type":"VEC3"
		},
		{
			"bufferView":22,
			"componentType":5126,
			"count":66,
			"type":"VEC3"
		},
		{
			"bufferView":23,
			"componentType":5126,
			"count":66,
			"type":"VEC4"
		},
		{
			"bufferView":24,
			"componentType":5126,
			"count":66,
			"type":"VEC3"
		},
		{
			"bufferView":25,
			"componentType":5126,
			"count":2,
			"max":[
				0.5
			],
			"min":[
				0
			],
			"type":"SCALAR"
		},
		{
			"bufferView":26,
			"componentType":5126,
			"count":2,
			"type":"VEC3"
		},
		{
			"bufferView":27,
			"componentType":5126,
			"count":31,
			"max":[
				0.5
			],
			"min":[
				0
			],
			"type":"SCALAR"
		},
		{
			"bufferView":28,
			"componentType":5126,
			"count":31,
			"type":"VEC4"
		},
		{
			"bufferView":29,
			"componentType":5126,
			"count":2,
			"type":"VEC3"
		},
		{
			"bufferView":30,
			"componentType":5126,
			"count":2,
			"type":"VEC3"
		},
		{
			"bufferView":31,
			"componentType":5126,
			"count":31,
			"type":"VEC4"
		},
		{
			"bufferView":32,
			"componentType":5126,
			"count":2,
			"type":"VEC3"
		},
		{
			"bufferView":33,
			"componentType":5126,
			"count":31,
			"type":"VEC3"
		},
		{
			"bufferView":34,
			"componentType":5126,
			"count":31,
			"type":"VEC4"
		},
		{
			"bufferView":35,
			"componentType":5126,
			"count":31,
			"type":"VEC3"
		},
		{
			"bufferView":36,
			"componentType":5126,
			"count":2,
			"max":[
				0.4666666666666667
			],
			"min":[
				0
			],
			"type":"SCALAR"
		},
		{
			"bufferView":37,
			"componentType":5126,
			"count":2,
			"type":"VEC3"
		},
		{
			"bufferView":38,
			"componentType":5126,
			"count":29,
			"max":[
				0.4666666666666667
			],
			"min":[
				0
			],
			"type":"SCALAR"
		},
		{
			"bufferView":39,
			"componentType":5126,
			"count":29,
			"type":"VEC4"
		},
		{
			"bufferView":40,
			"componentType":5126,
			"count":2,
			"type":"VEC3"
		},
		{
			"bufferView":41,
			"componentType":5126,
			"count":2,
			"type":"VEC3"
		},
		{
			"bufferView":42,
			"componentType":5126,
			"count":2,
			"type":"VEC4"
		},
		{
			"bufferView":43,
			"componentType":5126,
			"count":2,
			"type":"VEC3"
		},
		{
			"bufferView":44,
			"componentType":5126,
			"count":29,
			"type":"VEC3"
		},
		{
			"bufferView":45,
			"componentType":5126,
			"count":29,
			"type":"VEC4"
		},
		{
			"bufferView":46,
			"componentType":5126,
			"count":29,
			"type":"VEC3"
		},
		{
			"bufferView":47,
			"componentType":5126,
			"count":2,
			"max":[
				1
			],
			"min":[
				0
			],
			"type":"SCALAR"
		},
		{
			"bufferView":48,
			"componentType":5126,
			"count":2,
			"type":"VEC3"
		},
		{
			"bufferView":49,
			"componentType":5126,
			"count":61,
			"max":[
				1
			],
			"min":[
				0
			],
			"type":"SCALAR"
		},
		{
			"bufferView":50,
			"componentType":5126,
			"count":61,
			"type":"VEC4"
		},
		{
			"bufferView":51,
			"componentType":5126,
			"count":61,
			"type":"VEC3"
		},
		{
			"bufferView":52,
			"componentType":5126,
			"count":2,
			"type":"VEC3"
		},
		{
			"bufferView":53,
			"componentType":5126,
			"count":2,
			"type":"VEC4"
		},
		{
			"bufferView":54,
			"componentType":5126,
			"count":2,
			"type":"VEC3"
		},
		{
			"bufferView":55,
			"componentType":5126,
			"count":61,
			"type":"VEC3"
		},
		{
			"bufferView":56,
			"componentType":5126,
			"count":61,
			"type":"VEC4"
		},
		{
			"bufferView":57,
			"componentType":5126,
			"count":61,
			"type":"VEC3"
		},
		{
			"bufferView":58,
			"componentType":5126,
			"count":2,
			"type":"VEC3"
		},
		{
			"bufferView":59,
			"componentType":5126,
			"count":31,
			"type":"VEC4"
		},
		{
			"bufferView":60,
			"componentType":5126,
			"count":2,
			"type":"VEC3"
		},
		{
			"bufferView":61,
			"componentType":5126,
			"count":2,
			"type":"VEC3"
		},
		{
			"bufferView":62,
			"componentType":5126,
			"count":31,
			"type":"VEC4"
		},
		{
			"bufferView":63,
			"componentType":5126,
			"count":2,
			"type":"VEC3"
		},
		{
			"bufferView":64,
			"componentType":5126,
			"count":2,
			"type":"VEC3"
		},
		{
			"bufferView":65,
			"componentType":5126,
			"count":2,
			"type":"VEC4"
		},
		{
			"bufferView":66,
			"componentType":5126,
			"count":2,
			"type":"VEC3"
		},
		{
			"bufferView":67,
			"componentType":5126,
			"count":2,
			"max":[
				0.3333333333333333
			],
			"min":[
				0
			],
			"type":"SCALAR"
		},
		{
			"bufferView":68,
			"componentType":5126,
			"count":2,
			"type":"VEC3"
		},
		{
			"bufferView":69,
			"componentType":5126,
			"count":2,
			"type":"VEC4"
		},
		{
			"bufferView":70,
			"componentType":5126,
			"count":2,
			"type":"VEC3"
		},
		{
			"bufferView":71,
			"componentType":5126,
			"count":2,
			"type":"VEC3"
		},
		{
			"bufferView":72,
			"componentType":5126,
			"count":2,
			"type":"VEC4"
		},
		{
			"bufferView":73,
			"componentType":5126,
			"count":2,
			"type":"VEC3"
		},
		{
			"bufferView":74,
			"componentType":5126,
			"count":2,
			"type":"VEC3"
		},
		{
			"bufferView":75,
			"componentType":5126,
			"count":2,
			"type":"VEC4"
		},
		{
			"bufferView":76,
			"componentType":5126,
			"count":2,
			"type":"VEC3"
		}
	],
	"bufferViews":[
		{
			"buffer":0,
			"byteLength":864,
			"byteOffset":0,
			"target":34962
		},
		{
			"buffer":0,
			"byteLength":864,
			"byteOffset":864,
			"target":34962
		},
		{
			"buffer":0,
			"byteLength":576,
			"byteOffset":1728,
			"target":34962
		},
		{
			"buffer":0,
			"byteLength":288,
			"byteOffset":2304,
			"target":34962
		},
		{
			"buffer":0,
			"byteLength":1152,
			"byteOffset":2592,
			"target":34962
		},
		{
			"buffer":0,
			"byteLength":228,
			"byteOffset":3744,
			"target":34963
		},
		{
			"buffer":0,
			"byteLength":128,
			"byteOffset":3972
		},
		{
			"buffer":0,
			"byteLength":888,
			"byteOffset":4100,
			"target":34962
		},
		{
			"buffer":0,
			"byteLength":888,
			"byteOffset":4988,
			"target":34962
		},
		{
			"buffer":0,
			"byteLength":592,
			"byteOffset":5876,
			"target":34962
		},
		{
			"buffer":0,
			"byteLength":296,
			"byteOffset":6468,
			"target":34962
		},
		{
			"buffer":0,
			"byteLength":1184,
			"byteOffset":6764,
			"target":34962
		},
		{
			"buffer":0,
			"byteLength":204,
			"byteOffset":7948,
			"target":34963
		},
		{
			"buffer":0,
			"byteLength":64,
			"byteOffset":8152
		},
		{
			"buffer":0,
			"byteLength":8,
			"byteOffset":8216
		},
		{
			"buffer":0,
			"byteLength":24,
			"byteOffset":8224
		},
		{
			"buffer":0,
			"byteLength":264,
			"byteOffset":8248
		},
		{
			"buffer":0,
			"byteLength":1056,
			"byteOffset":8512
		},
		{
			"buffer":0,
			"byteLength":792,
			"byteOffset":9568
		},
		{
			"buffer":0,
			"byteLength":24,
			"byteOffset":10360
		},
		{
			"buffer":0,
			"byteLength":32,
			"byteOffset":10384
		},
		{
			"buffer":0,
			"byteLength":24,
			"byteOffset":10416
		},
		{
			"buffer":0,
			"byteLength":792,
			"byteOffset":10440
		},
		{
			"buffer":0,
			"byteLength":1056,
			"byteOffset":11232
		},
		{
			"buffer":0,
			"byteLength":792,
			"byteOffset":12288
		},
		{
			"buffer":0,
			"byteLength":8,
			"byteOffset":13080
		},
		{
			"buffer":0,
			"byteLength":24,
			"byteOffset":13088
		},
		{
			"buffer":0,
			"byteLength":124,
			"byteOffset":13112
		},
		{
			"buffer":0,
			"byteLength":496,
			"byteOffset":13236
		},
		{
			"buffer":0,
			"byteLength":24,
			"byteOffset":13732
		},
		{
			"buffer":0,
			"byteLength":24,
			"byteOffset":13756
		},
		{
			"buffer":0,
			"byteLength":496,
			"byteOffset":13780
		},
		{
			"buffer":0,
			"byteLength":24,
			"byteOffset":14276
		},
		{
			"buffer":0,
			"byteLength":372,
			"byteOffset":14300
		},
		{
			"buffer":0,
			"byteLength":496,
			"byteOffset":14672
		},
		{
			"buffer":0,
			"byteLength":372,
			"byteOffset":15168
		},
		{
			"buffer":0,
			"byteLength":8,
			"byteOffset":15540
		},
		{
			"buffer":0,
			"byteLength":24,
			"byteOffset":15548
		},
		{
			"buffer":0,
			"byteLength":116,
			"byteOffset":15572
		},
		{
			"buffer":0,
			"byteLength":464,
			"byteOffset":15688
		},
		{
			"buffer":0,
			"byteLength":24,
			"byteOffset":16152
		},
		{
			"buffer":0,
			"byteLength":24,
			"byteOffset":16176
		},
		{
			"buffer":0,
			"byteLength":32,
			"byteOffset":16200
		},
		{
			"buffer":0,
			"byteLength":24,
			"byteOffset":16232
		},
		{
			"buffer":0,
			"byteLength":348,
			"byteOffset":16256
		},
		{
			"buffer":0,
			"byteLength":464,
			"byteOffset":16604
		},
		{
			"buffer":0,
			"byteLength":348,
			"byteOffset":17068
		},
		{
			"buffer":0,
			"byteLength":8,
			"byteOffset":17416
		},
		{
			"buffer":0,
			"byteLength":24,
			"byteOffset":17424
		},
		{
			"buffer":0,
			"byteLength":244,
			"byteOffset":17448
		},
		{
			"buffer":0,
			"byteLength":976,
			"byteOffset":17692
		},
		{
			"buffer":0,
			"byteLength":732,
			"byteOffset":18668
		},
		{
			"buffer":0,
			"byteLength":24,
			"byteOffset":19400
		},
		{
			"buffer":0,
			"byteLength":32,
			"byteOffset":19424
		},
		{
			"buffer":0,
			"byteLength":24,
			"byteOffset":19456
		},
		{
			"buffer":0,
			"byteLength":732,
			"byteOffset":19480
		},
		{
			"buffer":0,
			"byteLength":976,
			"byteOffset":20212
		},
		{
			"buffer":0,
			"byteLength":732,
			"byteOffset":21188
		},
		{
			"buffer":0,
			"byteLength":24,
			"byteOffset":21920
		},
		{
			"buffer":0,
			"byteLength":496,
			"byteOffset":21944
		},
		{
			"buffer":0,
			"byteLength":24,
			"byteOffset":22440
		},
		{
			"buffer":0,
			"byteLength":24,
			"byteOffset":22464
		},
		{
			"buffer":0,
			"byteLength":496,
			"byteOffset":22488
		},
		{
			"buffer":0,
			"byteLength":24,
			"byteOffset":22984
		},
		{
			"buffer":0,
			"byteLength":24,
			"byteOffset":23008
		},
		{
			"buffer":0,
			"byteLength":32,
			"byteOffset":23032
		},
		{
			"buffer":0,
			"byteLength":24,
			"byteOffset":23064
		},
		{
			"buffer":0,
			"byteLength":8,
			"byteOffset":23088
		},
		{
			"buffer":0,
			"byteLength":24,
			"byteOffset":23096
		},
		{
			"buffer":0,
			"byteLength":32,
			"byteOffset":23120
		},
		{
			"buffer":0,
			"byteLength":24,
			"byteOffset":23152
		},
		{
			"buffer":0,
			"byteLength":24,
			"byteOffset":23176
		},
		{
			"buffer":0,
			"byteLength":32,
			"byteOffset":23200
		},
		{
			"buffer":0,
			"byteLength":24,
			"byteOffset":23232
		},
		{
			"buffer":0,
			"byteLength":24,
			"byteOffset":23256
		},
		{
			"buffer":0,
			"byteLength":32,
			"byteOffset":23280
		},
		{
			"buffer":0,
			"byteLength":24,
			"byteOffset":23312
		}
	],
	"buffers":[
		{
			"byteLength":23336,
			"uri":"Player.bin"
		}
	]
}
